<mxfile host="app.diagrams.net" agent="Mozilla/5.0 (Macintosh; Intel Mac OS X 10_15_7) AppleWebKit/537.36 (KHTML, like Gecko) Chrome/136.0.0.0 Safari/537.36" version="27.1.4">
  <diagram name="第 1 页" id="fY5CujeRPEhwM3bfNNjF">
    <mxGraphModel dx="2706" dy="1480" grid="1" gridSize="10" guides="1" tooltips="1" connect="1" arrows="1" fold="1" page="1" pageScale="1" pageWidth="827" pageHeight="1169" math="0" shadow="0">
      <root>
        <mxCell id="0" />
        <mxCell id="1" parent="0" />
        <mxCell id="2rTzAIaTju17xesEqHSP-2" value="" style="rounded=1;whiteSpace=wrap;html=1;fillColor=#f5f5f5;fontColor=#333333;strokeColor=#666666;" vertex="1" parent="1">
          <mxGeometry x="840" y="590" width="650" height="320" as="geometry" />
        </mxCell>
        <mxCell id="2rTzAIaTju17xesEqHSP-1" value="" style="rounded=1;whiteSpace=wrap;html=1;fillColor=#f5f5f5;fontColor=#333333;strokeColor=#666666;" vertex="1" parent="1">
          <mxGeometry x="120" y="590" width="620" height="310" as="geometry" />
        </mxCell>
        <mxCell id="ItZwud2vc75NwTR2prj7-14" value="" style="rounded=1;whiteSpace=wrap;html=1;fillColor=#f5f5f5;fontColor=#333333;strokeColor=#666666;" parent="1" vertex="1">
          <mxGeometry x="120" y="300" width="610" height="210" as="geometry" />
        </mxCell>
        <mxCell id="2rTzAIaTju17xesEqHSP-6" value="" style="edgeStyle=orthogonalEdgeStyle;rounded=0;orthogonalLoop=1;jettySize=auto;html=1;" edge="1" parent="1" source="ItZwud2vc75NwTR2prj7-2" target="2rTzAIaTju17xesEqHSP-5">
          <mxGeometry relative="1" as="geometry">
            <Array as="points">
              <mxPoint x="400" y="780" />
              <mxPoint x="400" y="780" />
            </Array>
          </mxGeometry>
        </mxCell>
        <mxCell id="2rTzAIaTju17xesEqHSP-9" value="存储数据" style="edgeLabel;html=1;align=center;verticalAlign=middle;resizable=0;points=[];" vertex="1" connectable="0" parent="2rTzAIaTju17xesEqHSP-6">
          <mxGeometry x="-0.1329" relative="1" as="geometry">
            <mxPoint as="offset" />
          </mxGeometry>
        </mxCell>
        <mxCell id="2rTzAIaTju17xesEqHSP-8" style="edgeStyle=orthogonalEdgeStyle;rounded=0;orthogonalLoop=1;jettySize=auto;html=1;exitX=0.75;exitY=1;exitDx=0;exitDy=0;entryX=0.75;entryY=0;entryDx=0;entryDy=0;" edge="1" parent="1" source="ItZwud2vc75NwTR2prj7-2" target="2rTzAIaTju17xesEqHSP-5">
          <mxGeometry relative="1" as="geometry" />
        </mxCell>
        <mxCell id="2rTzAIaTju17xesEqHSP-10" value="读取数据" style="edgeLabel;html=1;align=center;verticalAlign=middle;resizable=0;points=[];" vertex="1" connectable="0" parent="2rTzAIaTju17xesEqHSP-8">
          <mxGeometry x="-0.1329" y="1" relative="1" as="geometry">
            <mxPoint as="offset" />
          </mxGeometry>
        </mxCell>
        <mxCell id="ItZwud2vc75NwTR2prj7-2" value="graph" style="rounded=1;whiteSpace=wrap;html=1;" parent="1" vertex="1">
          <mxGeometry x="370" y="670" width="120" height="60" as="geometry" />
        </mxCell>
        <mxCell id="ItZwud2vc75NwTR2prj7-9" value="" style="edgeStyle=orthogonalEdgeStyle;rounded=0;orthogonalLoop=1;jettySize=auto;html=1;" parent="1" source="ItZwud2vc75NwTR2prj7-3" target="ItZwud2vc75NwTR2prj7-8" edge="1">
          <mxGeometry relative="1" as="geometry" />
        </mxCell>
        <mxCell id="ItZwud2vc75NwTR2prj7-3" value="scraper" style="rounded=1;whiteSpace=wrap;html=1;" parent="1" vertex="1">
          <mxGeometry x="950" y="655" width="120" height="60" as="geometry" />
        </mxCell>
        <mxCell id="ItZwud2vc75NwTR2prj7-4" value="agent" style="rounded=1;whiteSpace=wrap;html=1;" parent="1" vertex="1">
          <mxGeometry x="950" y="735" width="120" height="60" as="geometry" />
        </mxCell>
        <mxCell id="ItZwud2vc75NwTR2prj7-5" value="transfer" style="rounded=1;whiteSpace=wrap;html=1;" parent="1" vertex="1">
          <mxGeometry x="950" y="815" width="120" height="60" as="geometry" />
        </mxCell>
        <mxCell id="ItZwud2vc75NwTR2prj7-6" value="alerter" style="rounded=1;whiteSpace=wrap;html=1;" parent="1" vertex="1">
          <mxGeometry x="200" y="390" width="120" height="60" as="geometry" />
        </mxCell>
        <mxCell id="ItZwud2vc75NwTR2prj7-7" value="controller" style="rounded=1;whiteSpace=wrap;html=1;" parent="1" vertex="1">
          <mxGeometry x="510" y="385" width="120" height="60" as="geometry" />
        </mxCell>
        <mxCell id="ItZwud2vc75NwTR2prj7-8" value="jxm-exporter" style="rounded=1;whiteSpace=wrap;html=1;" parent="1" vertex="1">
          <mxGeometry x="1130" y="655" width="120" height="60" as="geometry" />
        </mxCell>
        <mxCell id="ItZwud2vc75NwTR2prj7-15" value="&lt;span style=&quot;color: rgb(51, 51, 51);&quot;&gt;应用层（业务逻辑）&lt;/span&gt;" style="text;html=1;align=center;verticalAlign=middle;whiteSpace=wrap;rounded=0;" parent="1" vertex="1">
          <mxGeometry x="353" y="320" width="144" height="30" as="geometry" />
        </mxCell>
        <mxCell id="ItZwud2vc75NwTR2prj7-16" value="" style="rounded=1;whiteSpace=wrap;html=1;fillColor=#f5f5f5;fontColor=#333333;strokeColor=#666666;" parent="1" vertex="1">
          <mxGeometry x="109" y="30" width="610" height="210" as="geometry" />
        </mxCell>
        <mxCell id="ItZwud2vc75NwTR2prj7-17" value="dashboard" style="rounded=1;whiteSpace=wrap;html=1;" parent="1" vertex="1">
          <mxGeometry x="200" y="105" width="120" height="60" as="geometry" />
        </mxCell>
        <mxCell id="ItZwud2vc75NwTR2prj7-18" value="grafana" style="rounded=1;whiteSpace=wrap;html=1;" parent="1" vertex="1">
          <mxGeometry x="510" y="105" width="120" height="60" as="geometry" />
        </mxCell>
        <mxCell id="2rTzAIaTju17xesEqHSP-3" value="&lt;span style=&quot;color: rgb(51, 51, 51);&quot;&gt;数据存储层&lt;/span&gt;" style="text;html=1;align=center;verticalAlign=middle;whiteSpace=wrap;rounded=0;" vertex="1" parent="1">
          <mxGeometry x="353" y="620" width="144" height="30" as="geometry" />
        </mxCell>
        <mxCell id="2rTzAIaTju17xesEqHSP-4" value="&lt;span style=&quot;color: rgb(51, 51, 51);&quot;&gt;用户交互层&lt;/span&gt;" style="text;html=1;align=center;verticalAlign=middle;whiteSpace=wrap;rounded=0;" vertex="1" parent="1">
          <mxGeometry x="353" y="50" width="144" height="30" as="geometry" />
        </mxCell>
        <mxCell id="2rTzAIaTju17xesEqHSP-5" value="influxdb" style="rounded=1;whiteSpace=wrap;html=1;" vertex="1" parent="1">
          <mxGeometry x="370" y="790" width="120" height="60" as="geometry" />
        </mxCell>
        <mxCell id="2rTzAIaTju17xesEqHSP-11" value="&lt;span style=&quot;color: rgb(51, 51, 51);&quot;&gt;数据采集层&lt;/span&gt;" style="text;html=1;align=center;verticalAlign=middle;whiteSpace=wrap;rounded=0;" vertex="1" parent="1">
          <mxGeometry x="1093" y="610" width="144" height="30" as="geometry" />
        </mxCell>
      </root>
    </mxGraphModel>
  </diagram>
</mxfile>
